<svg width="20" height="30" viewBox="0 0 20 30" fill="none" xmlns="http://www.w3.org/2000/svg">
<circle cx="10" cy="15" r="10" fill="#136065"/>
<path d="M9.04492 16.3809C9.04492 15.834 9.11133 15.3984 9.24414 15.0742C9.37695 14.75 9.61914 14.4316 9.9707 14.1191C10.3262 13.8027 10.5625 13.5469 10.6797 13.3516C10.7969 13.1523 10.8555 12.9434 10.8555 12.7246C10.8555 12.0645 10.5508 11.7344 9.94141 11.7344C9.65234 11.7344 9.41992 11.8242 9.24414 12.0039C9.07227 12.1797 8.98242 12.4238 8.97461 12.7363H7.27539C7.2832 11.9902 7.52344 11.4062 7.99609 10.9844C8.47266 10.5625 9.12109 10.3516 9.94141 10.3516C10.7695 10.3516 11.4121 10.5527 11.8691 10.9551C12.3262 11.3535 12.5547 11.918 12.5547 12.6484C12.5547 12.9805 12.4805 13.2949 12.332 13.5918C12.1836 13.8848 11.9238 14.2109 11.5527 14.5703L11.0781 15.0215C10.7812 15.3066 10.6113 15.6406 10.5684 16.0234L10.5449 16.3809H9.04492ZM8.875 18.1797C8.875 17.918 8.96289 17.7031 9.13867 17.5352C9.31836 17.3633 9.54688 17.2773 9.82422 17.2773C10.1016 17.2773 10.3281 17.3633 10.5039 17.5352C10.6836 17.7031 10.7734 17.918 10.7734 18.1797C10.7734 18.4375 10.6855 18.6504 10.5098 18.8184C10.3379 18.9863 10.1094 19.0703 9.82422 19.0703C9.53906 19.0703 9.30859 18.9863 9.13281 18.8184C8.96094 18.6504 8.875 18.4375 8.875 18.1797Z" fill="white"/>
</svg>
